<?xml version="1.0" encoding="utf-8" ?>
<svg xmlns="http://www.w3.org/2000/svg" xmlns:xlink="http://www.w3.org/1999/xlink" width="512" height="512">
	<path fill="#F62019" transform="scale(0.666667 0.666667)" d="M4.09988 768L-0 768L0 -0L768 0L768 768L764.187 768L508.426 768L416.49 768L335.083 768L247.808 768L4.09988 768Z"/>
	<path fill="#FDD4D6" transform="scale(0.666667 0.666667)" d="M559.784 332.72C561.582 331.466 561.448 329.93 563.461 329.016C561.541 333.975 553.194 355.643 549.188 357.392C548.489 357.697 548.523 357.583 547.858 357.388L548.159 356.951C551.25 354.169 553.07 348.644 554.647 344.843C556.33 340.79 558.053 336.753 559.784 332.72Z"/>
	<path fill="#FFCDD1" transform="scale(0.666667 0.666667)" d="M574.068 303.161C574.501 304.675 574.502 305.576 574.105 307.109C572.915 311.709 569.816 316.361 567.673 320.625C566.335 323.286 565.164 326.488 563.553 328.948L563.461 329.016C561.448 329.93 561.582 331.466 559.784 332.72C561.482 327.556 564.343 321.933 566.981 317.176C569.476 312.678 573.069 308.268 574.068 303.161Z"/>
	<path fill="#0B2530" transform="scale(0.666667 0.666667)" d="M508.248 555.213C509.108 554.074 510.147 552.459 511.678 552.226C512.288 552.133 512.872 552.943 513.283 553.336C517.17 557.044 520.319 561.025 524.644 564.375C538.502 575.109 554.633 583.617 570.103 591.826C591.767 603.321 613.705 613.695 636.258 623.305C645.695 627.326 655.097 631.465 664.72 635.029C677.222 639.658 689.913 643.895 702.502 648.291C708.076 650.237 713.921 651.869 719.315 654.263C723.64 656.181 727.967 658.924 730.891 662.707C734.399 667.244 736.396 673.069 738.488 678.371C742.555 688.678 746.324 699.007 749.363 709.674C751.745 718.036 753.528 726.586 755.729 735C758.607 745.999 761.764 756.881 764.187 768L508.426 768L508.248 555.213Z"/>
	<path fill="#0B2530" transform="scale(0.666667 0.666667)" d="M248.364 547.086L247.808 768L4.09988 768C4.36127 760.407 5.29977 752.871 6.18006 745.332C7.97521 729.959 10.4727 714.566 13.4387 699.375C15.1388 690.668 16.6081 681.816 19.1771 673.312C22.6721 661.745 28.2614 650.683 34.4835 640.355C36.524 636.968 38.6927 633.07 41.5126 630.264C43.7861 628.001 46.8451 626.644 49.8022 625.508C60.6019 621.361 72.4429 618.782 83.6566 615.914C94.7509 613.076 105.823 609.966 116.812 606.748C139.307 600.161 161.662 592.297 183.387 583.509C200.673 576.518 217.393 569.349 233.203 559.375C238.72 555.895 244.507 552.472 248.364 547.086Z"/>
	<path fill="white" transform="scale(0.666667 0.666667)" d="M248.364 547.086C247.7 545.482 247.03 543.881 246.352 542.283C245.324 539.864 253.417 519.402 254.839 515.964C258.85 506.266 263.903 496.825 269.884 488.195C271.805 485.423 273.981 482.823 276.06 480.169C277.2 478.714 278.801 476.866 279.192 475.033C279.649 472.895 279.484 470.382 279.487 468.188C279.493 464.156 279.465 460.125 279.419 456.094C279.122 429.768 273.912 402.956 265.506 378C262.003 367.599 257.626 357.541 254.154 347.12C247.479 327.089 242.282 306.477 238.102 285.791C234.728 269.094 231.577 251.663 232.062 234.549C232.833 207.351 247.934 181.052 267.397 162.691C278.144 152.552 290.666 144.746 303.574 137.681C312.242 132.937 320.973 128.385 330.149 124.683C364.345 110.887 401.32 107.327 437.896 108.498C457.677 109.131 478.525 112.159 496.699 120.275C508.837 125.696 520.688 134.203 529.762 143.891C539.28 154.052 545.317 167.298 544.76 181.41C544.28 193.576 539.656 207.113 532.131 216.735C529.551 220.034 526.38 222.858 523.325 225.708C526.133 236.549 528.225 247.549 531.021 258.375C532.562 264.344 534.527 270.154 536.48 275.994C536.912 277.286 537.789 280.96 538.733 281.907C539.322 282.499 541.249 282.92 542.067 283.16C550.958 285.775 565.676 286.193 571.456 294.247C572.174 295.248 572.874 296.377 572.661 297.647L574.068 303.161C573.069 308.268 569.476 312.678 566.981 317.176C564.343 321.933 561.482 327.556 559.784 332.72C558.053 336.753 556.33 340.79 554.647 344.843C553.07 348.644 551.25 354.169 548.159 356.951C546.187 355.917 542.053 356.33 539.746 356.182C536.916 356.002 534.049 355.562 531.377 354.587C532.233 356.387 533.314 358.847 532.454 360.836C532.154 361.53 531.42 362.682 530.666 362.928C518.57 366.868 505.551 359.028 493.124 360.968C486.617 361.984 480.582 364.979 474.763 367.929C475.488 369.036 479.209 372.754 480.421 373.099C480.903 373.236 481.427 373.092 481.891 372.966L482.158 372.663C485.988 368.458 490.99 367.818 496.347 367.506C498.771 367.725 501.078 368.023 503.373 368.85C505.793 369.723 507.738 370.689 509.848 372.206C510.249 373.535 510.65 374.768 510.766 376.156C518.59 375.61 523.263 374.414 529.061 368.815C527.225 377.624 525.414 386.439 524.107 395.344C520.802 417.869 518.609 440.573 513.268 462.761C512.147 467.418 511.193 472.398 509.062 476.722C508.028 478.822 506.598 480.606 504.636 481.9C502.894 483.049 500.834 483.963 498.785 484.36C495.253 485.044 491.23 484.695 487.645 484.571C477.098 484.205 465.939 483.403 455.63 481.148C446.35 479.118 437.448 476.15 428.366 473.458C394.67 463.471 359.242 450.307 339.489 419.126C335.424 412.708 332.071 405.865 329.258 398.812C327.111 393.431 325.299 387.678 322.43 382.637C320.447 379.154 316.949 377.325 314.897 374.062L314.509 373.47L314.25 373.063C311.878 373.859 309.679 375.19 307.333 376.085C301.355 378.363 294.866 378.346 289.095 375.457C281.767 371.789 276.11 365.897 270.416 360.146C272.081 364.105 273.37 368.655 275.903 372.151C281.833 380.338 292.89 382.074 301.218 386.752C306.84 389.91 311.479 394.493 315.059 399.835C324.8 414.368 328.969 432.185 335.834 448.16C345.927 471.643 360.365 492.226 374.861 513.119C379.554 519.882 384.426 526.45 389.438 532.978C391.721 535.952 393.941 539.253 396.545 541.943C390.158 553.399 383.263 564.379 377.872 576.373C375.837 580.899 373.805 585.33 372.78 590.214C384.813 583.905 396.222 575.243 407.033 567.045C417.502 559.107 427.874 551.086 437.997 542.709C446.22 535.905 455.307 529.001 462.142 520.732C466.207 515.815 468.712 510.579 470.601 504.516C472.083 499.761 472.809 494.292 474.938 489.785C475.827 489.623 475.519 489.507 476.21 489.965C478.537 491.51 480.397 495.866 481.79 498.318C492.176 516.608 499.863 535.963 508.248 555.213L508.426 768L416.49 768L335.083 768L247.808 768L248.364 547.086Z"/>
	<path fill="#E90E07" transform="scale(0.666667 0.666667)" d="M357.205 595.879C358.911 592.858 361.907 587.721 364.875 585.882L365.398 586.312C364.961 589.606 362.966 592.177 361.059 594.783C360.289 595.835 359.297 596.871 358.897 598.116L358.247 597.676L358.109 596.25L357.205 595.879Z"/>
	<path fill="#274158" transform="scale(0.666667 0.666667)" d="M469.931 273.531C473.444 274.444 475.973 275.517 477.894 278.769C478.763 280.242 478.776 281.112 478.418 282.75L477.69 283.426C477.751 279.843 470.357 277.975 468.953 275.174L469.931 273.531Z"/>
	<path fill="#032129" transform="scale(0.666667 0.666667)" d="M496.391 184.092C498.024 188.715 499.269 193.382 500.205 198.192C500.925 201.894 501.34 205.661 502.322 209.307L496.62 208.789L495.372 188.786C495.641 186.852 495.175 185.784 496.391 184.092Z"/>
	<path fill="#E90E07" transform="scale(0.666667 0.666667)" d="M486.246 426.157C490.217 425.756 494.604 425.938 498.562 426.349C500.033 426.502 501.789 426.556 503.062 427.397C504.077 428.066 504.518 428.382 504.728 429.562L493.688 440.578C492.806 440.234 491.91 439.275 491.166 438.66C489.443 437.238 487.689 435.85 485.855 434.572C482.009 431.894 477.738 429.511 473.535 427.445L486.246 426.157Z"/>
	<path fill="#0B2530" transform="scale(0.666667 0.666667)" d="M477.69 283.426C476.992 284.028 476.266 284.399 475.448 284.818L474.84 285.124C473.425 285.847 472.034 285.858 470.477 285.79C465.323 285.565 460.058 284.367 454.942 283.675C443.494 282.127 431.929 280.733 420.569 278.637C429.969 274.544 439.591 274.509 449.661 274.023C456.452 273.694 463.127 273.308 469.931 273.531L468.953 275.174C470.357 277.975 477.751 279.843 477.69 283.426Z"/>
	<path fill="#E90E07" transform="scale(0.666667 0.666667)" d="M493.949 399.562C494.879 399.425 495.105 399.287 495.875 399.938C497.475 401.289 498.547 403.331 500.248 404.603C502.787 406.5 508.38 405.094 511.67 405.938C514.424 408.653 514.692 413.413 514.987 417.064C511.35 415.482 507.785 415.014 503.903 414.397C499.803 413.745 495.579 412.855 491.427 412.702C486.042 412.503 480.553 413.301 475.214 413.954C466.958 414.831 457.824 416.167 449.762 413.649C454.331 412.159 459.11 411.938 463.705 410.579C473.899 407.566 483.951 403.224 493.949 399.562Z"/>
	<path fill="#0B2530" transform="scale(0.666667 0.666667)" d="M309.797 295.151C313.883 295.303 318.276 294.712 322.369 294.428C329.944 293.904 337.54 293.435 345.101 292.746L343.655 300.456C342.317 304.819 340.931 309.178 339.52 313.518C338.833 315.633 338.026 318.851 336.44 320.465C335.797 321.121 334.961 321.499 334.035 321.472C333.514 321.456 333.611 321.466 333.267 321.145C328.457 316.673 324.888 310.293 320.437 305.357C318.693 303.423 316.868 301.436 314.917 299.708C313.204 298.193 311.202 296.968 309.797 295.151Z"/>
	<path fill="#E90E07" transform="scale(0.666667 0.666667)" d="M279.87 488.062C282.868 488.337 300.835 508.746 304.47 512.503C314.971 523.355 325.668 534.086 336.713 544.385C341.851 549.176 346.968 553.994 352.125 558.764C355.343 561.741 358.701 564.6 361.69 567.814C362.907 569.124 363.678 569.859 363.597 571.688C361.132 571.655 352.872 565.537 350.391 563.869C341.952 558.196 334.136 551.357 326.57 544.58C314.813 534.049 303.71 523.21 293.685 510.992C288.257 504.376 281.543 496.694 279.87 488.062Z"/>
	<path fill="#E90E07" transform="scale(0.666667 0.666667)" d="M468.72 348.754L470.085 347.666C479.965 339.158 488.508 324.114 491.321 311.384C492.035 308.156 492.214 304.834 492.451 301.544C494.479 301.505 496.405 301.47 498.416 301.819C497.086 301.892 495.339 301.635 494.441 302.625C494.773 303.321 495.081 303.899 495.566 304.5C495.566 306.259 495.413 307.33 496.23 308.926C490.649 319.552 492.039 332.125 487.239 343.064C486.175 345.489 484.784 347.894 483.014 349.874C479.82 353.45 474.804 356.764 473.085 361.335C472.602 362.62 472.596 363.875 473.021 365.178C473.361 366.22 474.031 367.128 474.763 367.929C475.488 369.036 479.209 372.754 480.421 373.099C480.903 373.236 481.427 373.092 481.891 372.966L482.158 372.663C485.988 368.458 490.99 367.818 496.347 367.506C498.771 367.725 501.078 368.023 503.373 368.85C505.793 369.723 507.738 370.689 509.848 372.206C510.249 373.535 510.65 374.768 510.766 376.156L500.69 400.797C499.501 398.816 498.475 396.896 498.04 394.588C497.18 390.02 499.543 382.593 496.479 378.938C492.454 376.698 484.088 377.689 479.762 379.208C477.539 379.989 474.642 381.649 472.345 381.846C471.39 381.928 470.682 381.525 470.062 380.816C468.724 379.285 468.078 376.973 467.583 375.034C465.985 368.778 465.338 361.458 465.382 355.009L464.833 352.344C465.916 350.891 467.313 349.873 468.72 348.754Z"/>
	<path fill="#B10001" transform="scale(0.666667 0.666667)" d="M464.833 352.344C465.916 350.891 467.313 349.873 468.72 348.754L469.312 350.066L468.941 350.625L468.467 351.914C468.094 352.93 467.878 353.495 467.062 354.191L466.502 354.377C466.025 354.612 465.946 354.88 465.382 355.009L464.833 352.344Z"/>
	<path fill="#B10001" transform="scale(0.666667 0.666667)" d="M496.347 367.506L497.118 368.156L496.684 368.438L496.838 368.963C496.524 369.302 495.932 370.142 495.562 370.34C494.854 370.72 493.471 370.844 492.638 371.096C489.597 372.016 486.425 373.281 483.201 373.309C482.692 373.314 482.336 373.201 481.891 372.966L482.158 372.663C485.988 368.458 490.99 367.818 496.347 367.506Z"/>
	<path fill="#E90E07" transform="scale(0.666667 0.666667)" d="M286.105 296.698C287.986 296.515 290.122 296.436 291.991 296.722C296.352 297.389 300.298 299.757 302.886 303.306C305.516 306.913 308.575 313.955 308.317 318.42C308.147 321.367 307.032 324.391 306.599 327.341C306.099 330.749 305.599 335.627 307.504 338.625C308.499 340.192 309.901 341.418 310.922 342.938C312.18 344.808 312.54 346.288 312.125 348.463C311.018 348.871 307.647 346.434 306.235 345.9C302.829 344.612 299.415 345.236 296.198 346.683L295.699 346.911C293.019 348.352 290.153 350.301 287.062 350.517C285.848 349.829 285.596 349.317 285.086 348C284.321 346.028 284.31 343.151 284.35 341.046C284.446 336.082 285.256 331.29 286.109 326.417C286.608 323.566 287.423 320.467 287.296 317.571C287.235 316.178 286.824 314.757 286.243 313.493C285.032 310.86 282.526 308.516 279.729 307.688C276.74 306.802 274.187 307.305 271.523 308.716L270.982 309.007L271.253 308.358C274.286 302.482 279.818 298.349 286.105 296.698Z"/>
	<path fill="white" transform="scale(0.666667 0.666667)" d="M498.416 301.819C501.113 302.199 503.075 302.841 505.334 304.388C506.602 306.596 507.985 309.106 507.539 311.725C510.429 320.288 512.733 328.916 517.315 336.8C521.034 343.201 526.465 349.071 531.377 354.587C532.233 356.387 533.314 358.847 532.454 360.836C532.154 361.53 531.42 362.682 530.666 362.928C518.57 366.868 505.551 359.028 493.124 360.968C486.617 361.984 480.582 364.979 474.763 367.929C474.031 367.128 473.361 366.22 473.021 365.178C472.596 363.875 472.602 362.62 473.085 361.335C474.804 356.764 479.82 353.45 483.014 349.874C484.784 347.894 486.175 345.489 487.239 343.064C492.039 332.125 490.649 319.552 496.23 308.926C495.413 307.33 495.566 306.259 495.566 304.5C495.081 303.899 494.773 303.321 494.441 302.625C495.339 301.635 497.086 301.892 498.416 301.819Z"/>
	<path fill="#F62019" transform="scale(0.666667 0.666667)" d="M498.416 301.819C501.113 302.199 503.075 302.841 505.334 304.388C506.602 306.596 507.985 309.106 507.539 311.725C506.5 309.833 505.476 307.679 503.807 306.262C502.809 305.415 501.95 305.187 500.635 305.345C498.67 305.581 497.393 307.518 496.23 308.926C495.413 307.33 495.566 306.259 495.566 304.5C495.081 303.899 494.773 303.321 494.441 302.625C495.339 301.635 497.086 301.892 498.416 301.819Z"/>
	<path fill="#E90E07" transform="scale(0.666667 0.666667)" d="M377.381 289.479C383.859 289.572 390.369 289.588 396.83 290.094C399.663 290.316 402.949 290.431 405.512 291.775C406.709 306.278 409.353 319.999 415.17 333.411C417.266 338.242 419.878 343.502 423.958 346.98C428.077 350.491 433.383 351.469 438.602 352.151C446.364 353.164 454.444 353.112 462.084 354.643C456.37 359.682 450.168 364.678 442.604 366.537C435.914 368.182 429.163 366.504 423.375 363.011C411.38 355.77 411.282 338.443 408.391 326.423C406.26 324.341 403.221 323.099 400.546 321.844C395.137 319.304 389.619 317.141 384.101 314.864C376.169 311.591 368.446 308.007 360.299 305.26C354.973 303.465 349.355 302.514 344.101 300.622L343.655 300.456L345.101 292.746C348.451 291.797 352.145 291.698 355.61 291.461C361.136 291.083 366.662 290.844 372.188 290.441L371.781 289.845C373.394 289.356 375.671 289.55 377.381 289.479Z"/>
	<path fill="#032129" transform="scale(0.666667 0.666667)" d="M353.414 281.054C356.396 279.964 360.424 280.24 363.582 280.178C369.294 280.067 375.008 280.037 380.721 279.918C393.715 279.647 407.237 278.437 420.188 279.475C424.011 279.782 427.996 280.736 431.798 281.337C441.033 282.796 450.264 284.371 459.516 285.712C468.049 286.949 476.566 287.561 485.1 288.947C486.397 289.158 488.374 289.09 489.562 289.498C491.181 290.053 490.205 291.961 491.812 292.42C494.25 293.115 497.303 293.172 499.86 293.536C506.651 294.504 513.477 296.058 520.372 295.827C516.395 294.477 511.304 294.335 507.938 291.809C507.709 290.695 507.855 290.254 508.522 289.312C510.727 286.196 516.83 285.654 520.354 285.28C524.611 284.827 529.051 284.276 533.332 284.434C534.245 284.467 535.693 284.506 536.468 285.067C538.413 286.475 539.145 288.885 539.718 291.104C547.208 291.817 554.72 292.676 562.125 294.028C565.754 294.691 569.878 295.019 572.661 297.647L574.068 303.161C573.069 308.268 569.476 312.678 566.981 317.176C564.343 321.933 561.482 327.556 559.784 332.72C558.053 336.753 556.33 340.79 554.647 344.843C553.07 348.644 551.25 354.169 548.159 356.951C546.187 355.917 542.053 356.33 539.746 356.182C536.916 356.002 534.049 355.562 531.377 354.587C526.465 349.071 521.034 343.201 517.315 336.8C512.733 328.916 510.429 320.288 507.539 311.725C507.985 309.106 506.602 306.596 505.334 304.388C503.075 302.841 501.113 302.199 498.416 301.819C496.405 301.47 494.479 301.505 492.451 301.544C492.214 304.834 492.035 308.156 491.321 311.384C488.508 324.114 479.965 339.158 470.085 347.666L468.72 348.754C467.313 349.873 465.916 350.891 464.833 352.344L462.084 354.643C454.444 353.112 446.364 353.164 438.602 352.151C433.383 351.469 428.077 350.491 423.958 346.98C419.878 343.502 417.266 338.242 415.17 333.411C409.353 319.999 406.709 306.278 405.512 291.775C402.949 290.431 399.663 290.316 396.83 290.094C390.369 289.588 383.859 289.572 377.381 289.479C373.862 288.684 369.889 288.719 366.284 288.47C364.647 288.357 362.925 288.543 361.637 287.387C360.832 286.664 360.297 286.416 359.248 286.127C358.598 285.948 358.554 285.977 357.938 285.566C358.497 284.858 358.737 285.032 359.594 284.906C358.561 284.197 356.138 284.57 354.799 284.397L354.121 284.302C353.626 283.832 353.237 283.499 352.623 283.18L352.125 282.941L351.938 282.375C352.617 282.261 352.822 282.22 353.413 281.821L353.414 281.054Z"/>
	<path fill="#32262B" transform="scale(0.666667 0.666667)" d="M431.337 347.587C432.315 347.523 432.773 347.625 433.688 347.924C438.906 349.629 445.611 349.601 451.089 349.986C452.921 350.115 458.049 350.053 459.303 351.375L458.954 352.069C457.14 352.346 455.354 352.398 453.562 352.684C452.763 352.811 452.899 352.77 452.438 352.309C451.499 352.309 449.694 352.565 449.062 351.934C448.297 351.934 448.127 352.123 447.562 351.559L446.812 351.559L446.438 351.18C444.513 351.07 442.413 351.085 440.561 350.562C439.423 350.241 437.884 350.401 436.602 350.139C435.355 349.885 434.197 350.337 433.101 349.64C432.41 349.201 431.998 349.261 431.252 349.051C430.611 348.87 430.36 348.578 429.982 348.064L431.337 347.587Z"/>
	<path fill="#E90E07" transform="scale(0.666667 0.666667)" d="M429.982 348.064C428.659 346.854 427.167 345.967 425.906 344.659C416.937 335.352 412.215 319.709 410.506 307.213C410.033 303.754 409.506 300.312 409.541 296.812L410.116 296.438C411.326 298.164 411.38 300.983 411.746 303.031C412.506 307.276 413.249 311.526 414.248 315.723C416.468 325.047 422.42 342.206 430.906 347.332L431.337 347.587L429.982 348.064Z"/>
	<defs>
		<linearGradient id="gradient_0" gradientUnits="userSpaceOnUse" x1="540.56201" y1="348.93799" x2="568.17603" y2="341.39499">
			<stop offset="0" stop-color="#CBCACC"/>
			<stop offset="1" stop-color="#F6F5F6"/>
		</linearGradient>
	</defs>
	<path fill="url(#gradient_0)" transform="scale(0.666667 0.666667)" d="M553.943 313.603L562.06 313.55C561.098 318.893 558.944 324.142 557.007 329.195C553.926 337.236 550.593 345.821 545.68 352.944C544.991 353.712 544.741 354.245 543.714 354.521C542.344 353.609 541.236 352.342 540.508 350.855C538.372 346.492 542.452 337.928 544.028 333.716C545.214 330.548 546.338 327.362 547.502 324.188C548.779 320.707 550.342 315.271 553.943 313.603Z"/>
	<path fill="#F62019" transform="scale(0.666667 0.666667)" d="M358.897 598.116C363.296 597.663 367.711 597.183 372.124 596.906C374.637 596.747 377.156 596.656 379.665 596.437C380.459 596.368 381.971 596.409 382.687 596.145C383.138 595.979 383.815 595.203 384.105 594.827L384.375 594.445C385.862 594.688 388.569 598.006 389.748 599.179C403.804 613.176 416.156 628.497 427.727 644.585C430.675 648.683 433.682 652.922 436.074 657.375C436.733 658.602 437.689 660.079 437.523 661.5C436.622 662.354 436.627 662.294 435.375 662.346C431.576 660.049 410.474 646.791 409.859 643.739C409.071 639.83 410.956 635.801 409.883 631.758C406.378 643.651 404.022 655.708 401.829 667.892C401.06 672.16 399.866 676.843 399.713 681.162C399.627 683.591 400.464 686.306 400.954 688.697C401.793 692.797 402.601 696.908 403.378 701.02C405.557 712.562 407.991 724.049 410.207 735.583C412.283 746.39 414.152 757.245 416.49 768L335.083 768C336.18 764.326 336.813 760.312 337.666 756.561C339.441 748.762 341.246 740.982 343.121 733.206C346.081 720.931 349.072 708.666 352.337 696.467C353.573 691.85 355.174 687.305 356.357 682.686C356.654 681.527 356.546 680.725 356.276 679.581L347.967 628.435C341.526 637.239 333.714 645.12 326.062 652.871C323.011 655.962 319.969 659.038 316.516 661.688C314.914 662.917 313.406 664.191 311.438 664.78L310.795 664.312C310.825 660.732 341.169 619.029 345.243 613.243C349.291 607.494 353.07 601.566 357.205 595.879L358.109 596.25L358.247 597.676L358.897 598.116Z"/>
	<path fill="#0B2530" transform="scale(0.666667 0.666667)" d="M309.797 295.151C307.803 294.548 305.831 293.141 303.938 292.243C298.162 289.504 290.939 288.13 284.625 289.479C276.042 291.314 270.344 298.944 265.504 305.702C261.661 311.068 258.128 316.663 254.498 322.176C253.875 319.685 253.707 316.986 253.339 314.438C252.778 310.554 252.102 306.681 251.679 302.779C249.03 278.366 249.578 253.385 249.393 228.854C249.342 222.172 249.323 215.49 249.327 208.808C249.331 203.886 249.114 198.718 250.141 193.875C251.481 187.557 255.651 181.5 259.655 176.564C267.173 167.297 277.225 161.408 287.11 155.1C292.271 151.807 297.29 148.252 302.563 145.139C313.534 138.662 325.089 133.122 336.874 128.297C348.144 123.682 359.462 119.584 371.657 118.305C367.105 121.64 362.14 124.396 357.565 127.739C350.923 132.592 344.656 137.893 338.43 143.262C330.813 149.83 323.255 156.695 316.52 164.181C339.155 160.071 362.325 152.935 385.219 159.583C399.443 163.713 412.678 172.284 420.627 184.96C422.513 187.97 423.591 191.334 425.295 194.434C426.009 189.284 421.384 177.811 418.365 173.454C408.317 158.957 388.465 156.455 372.505 153.428C381.297 151.88 390.498 151.719 399.397 152.379C418.4 153.79 437.847 163.63 451.339 176.954C455.67 181.231 459.585 185.875 462.007 191.527C463.048 193.958 463.953 196.58 464.4 199.189C464.745 201.206 464.513 206.311 465.75 207.734C466.434 206.758 466.155 205.079 466.143 203.889C466.015 190.637 458.633 179.251 449.399 170.293C437.74 158.981 422.872 150.678 406.618 148.552C391.338 146.553 375.242 148.522 359.842 148.778C363.146 145.182 367.402 142.096 371.406 139.331C381.704 132.218 392.392 127.231 404.38 123.627C417.83 119.584 431.689 118.11 445.687 117.67C463.761 117.101 483.331 117.984 499.563 126.798C510.011 132.472 518.772 140.832 526.232 150.012C530.75 155.572 534.932 161.796 536.941 168.742C540.344 180.513 537.733 193.217 531.87 203.811C528.733 209.479 524.767 213.683 518.423 215.487C517.22 210.292 517.142 204.74 516.266 199.454C513.634 183.586 506.339 167.685 494.408 156.675C482.066 145.288 469.186 139.125 453 135.28C446.399 133.712 440.206 132.612 433.394 132.874C437.061 134.202 441.25 134.432 445.072 135.258C458.114 138.079 470.135 143.089 480.487 151.672C494.796 163.536 505.18 180.962 510.617 198.615C512.216 203.809 513.631 208.961 514.168 214.387C511.936 212.848 508.473 210.938 506.743 208.884C503.551 205.095 503.182 197.277 501.392 192.562C499.8 188.372 497.755 184.514 495.641 180.575C495.692 181.794 496.064 182.925 496.391 184.092C495.175 185.784 495.641 186.852 495.372 188.786C494.768 185.936 494.459 182.907 493.672 180.119C492.441 175.758 489.123 169.765 485.966 166.522C487.269 170.531 489.591 174.204 491.191 178.125C495.052 187.588 495.507 198.619 495.187 208.725C492.917 208.721 490.647 208.716 488.376 208.709C487.312 208.705 486.092 208.861 485.086 208.502C483.596 198.939 481.262 189.845 478.059 180.713C476.32 175.753 474.38 170.404 471.144 166.223C471.327 170.651 474.236 175.915 475.753 180.075C478.977 188.917 482.046 198.966 482.488 208.404C477.9 209.12 472.608 209.866 467.971 209.624C466.433 209.544 465.151 208.909 463.688 208.541C462.107 208.145 460.426 207.954 458.812 207.733C449.971 206.523 441.031 206.164 432.115 206.298C427.685 206.364 423.013 206.349 418.678 207.33C418.413 205.169 418.301 202.976 417.789 200.855C415.227 190.247 408.421 179.763 399.881 173.01C395.013 169.161 389.834 166.692 383.774 165.441C387.175 167.444 390.865 169.148 394.135 171.329C404.269 178.087 411.682 188.81 414.794 200.578L416.312 207.731C406.985 209.528 397.286 211.242 387.782 211.512C382.743 211.655 377.703 211.625 372.666 211.433C368.183 211.262 363.71 210.828 359.231 210.571C357.063 210.446 354.545 210.121 352.448 210.749C365.074 213.106 377.216 214.491 390.071 214.55C387.413 218.786 384.553 222.768 380.18 225.372L380.24 225.752L381.241 226.312C380.988 227.598 378.612 229.568 377.543 230.328C376.608 230.992 375.409 231.426 374.35 231.852L380.538 232.312C381.095 233.084 381.386 233.613 381.188 234.608C380.953 235.787 380.371 236.487 379.61 237.375C380.246 238.292 380.978 238.171 381.562 239.102L379.573 240.562L379.599 241.416C381.038 241.928 383.486 241.716 384.562 242.703C383.608 243.682 381.86 242.921 381.402 243.588C383.642 244.297 385.537 244.185 387.006 246.188C386.858 247.664 386.536 247.769 385.543 248.812C386.501 249.057 387.003 248.878 387.938 248.669C388.821 249.067 388.824 249.076 389.271 249.938C389.371 252.292 388.164 253.577 386.623 255.239C382.729 259.441 377.811 262.599 373.119 265.834C368.164 269.252 363.314 272.748 358.57 276.453C357.209 277.517 353.854 279.564 353.414 281.054L353.413 281.821C352.822 282.22 352.617 282.261 351.938 282.375L352.125 282.941L352.623 283.18C353.237 283.499 353.626 283.832 354.121 284.302L354.799 284.397C356.138 284.57 358.561 284.197 359.594 284.906C358.737 285.032 358.497 284.858 357.938 285.566C358.554 285.977 358.598 285.948 359.248 286.127C360.297 286.416 360.832 286.664 361.637 287.387C362.925 288.543 364.647 288.357 366.284 288.47C369.889 288.719 373.862 288.684 377.381 289.479C375.671 289.55 373.394 289.356 371.781 289.845L372.188 290.441C366.662 290.844 361.136 291.083 355.61 291.461C352.145 291.698 348.451 291.797 345.101 292.746C337.54 293.435 329.944 293.904 322.369 294.428C318.276 294.712 313.883 295.303 309.797 295.151Z"/>
	<path fill="white" transform="scale(0.666667 0.666667)" d="M371.781 289.845L372.188 290.441C366.662 290.844 361.136 291.083 355.61 291.461C352.145 291.698 348.451 291.797 345.101 292.746C337.54 293.435 329.944 293.904 322.369 294.428C318.276 294.712 313.883 295.303 309.797 295.151L310.162 294.432C312.864 292.677 317.213 292.648 320.388 292.339C328.744 291.528 337.134 291.11 345.522 290.786L371.781 289.845Z"/>
	<path fill="#680E10" transform="scale(0.666667 0.666667)" d="M345.522 290.786C345.671 289.225 345.98 286.392 347.097 285.243C347.862 284.456 349.422 283.183 350.479 282.887C351.548 283.599 352.423 283.89 353.672 284.196L354.121 284.302L354.799 284.397C356.138 284.57 358.561 284.197 359.594 284.906C358.737 285.032 358.497 284.858 357.938 285.566C358.554 285.977 358.598 285.948 359.248 286.127C360.297 286.416 360.832 286.664 361.637 287.387C362.925 288.543 364.647 288.357 366.284 288.47C369.889 288.719 373.862 288.684 377.381 289.479C375.671 289.55 373.394 289.356 371.781 289.845L345.522 290.786Z"/>
	<path fill="white" transform="scale(0.666667 0.666667)" d="M514.874 148.312L515.732 148.363C519.408 150.876 521.669 156.273 523.214 160.305C528.257 173.458 528.472 192.273 522.629 205.234L520.003 210.307C520.808 205.415 520.831 200.403 520.971 195.457C521.227 186.404 521.345 177.229 519.52 168.313C518.148 161.613 515.781 155.101 514.874 148.312Z"/>
</svg>
